<?xml version="1.0" encoding="utf-8"?>
<!-- Generator: Adobe Illustrator 30.0.0, SVG Export Plug-In . SVG Version: 9.03 Build 0)  -->
<svg version="1.0" id="Layer_1" xmlns="http://www.w3.org/2000/svg" xmlns:xlink="http://www.w3.org/1999/xlink" x="0px" y="0px"
	 viewBox="0 0 1024 1024" style="enable-background:new 0 0 1024 1024;" xml:space="preserve">
<style type="text/css">
	.st0{clip-path:url(#SVGID_00000013161918180324056390000000594404366547732892_);}
	.st1{clip-path:url(#SVGID_00000175303891514925304850000013624391000518282371_);}
	.st2{clip-path:url(#SVGID_00000085943946164432176040000008277380577839686578_);}
	.st3{clip-path:url(#SVGID_00000144314567563538345190000017016969156370235526_);}
	.st4{fill:#007AFF;}
	.st5{fill:none;stroke:#FFFFFF;stroke-width:90;}
	.st6{fill:none;stroke:#FFFFFF;stroke-width:90;stroke-miterlimit:4;}
	.st7{clip-path:url(#SVGID_00000090977053348776339730000015516082132899768483_);}
	.st8{clip-path:url(#SVGID_00000042721930443881509840000014913313276585287075_);}
	.st9{clip-path:url(#SVGID_00000083767614471026084660000001276712605506902424_);}
	.st10{clip-path:url(#SVGID_00000104667102816477475010000014160760088243376515_);}
	.st11{clip-path:url(#SVGID_00000156589638996715796790000012639559742985011858_);}
	.st12{fill:#FFFFFF;}
	.st13{clip-path:url(#SVGID_00000154401035925312131970000012055220456478293398_);}
	.st14{clip-path:url(#SVGID_00000148642742694339443890000007473713248993157272_);}
	.st15{clip-path:url(#SVGID_00000016781377966775900400000005434529189870171529_);}
	.st16{clip-path:url(#SVGID_00000022535409086341769640000014095576750520411828_);}
	.st17{clip-path:url(#SVGID_00000103247514565751767660000017557301582469622975_);}
	.st18{clip-path:url(#SVGID_00000134239916866250457400000001942411611297350051_);}
	.st19{clip-path:url(#SVGID_00000112604153358984461550000013949123266139622018_);}
	.st20{clip-path:url(#SVGID_00000089536084277503351010000014914603569857340853_);}
	.st21{clip-path:url(#SVGID_00000067227073641298751650000003695406019166247572_);}
	.st22{clip-path:url(#SVGID_00000081635318176765193740000015208099341912736900_);}
	.st23{clip-path:url(#SVGID_00000116236849835968565550000004888483124773660552_);}
	.st24{clip-path:url(#SVGID_00000003811912746489528860000001904599305741615744_);}
	.st25{clip-path:url(#SVGID_00000057122024259757850590000011345324743950407568_);}
	.st26{clip-path:url(#SVGID_00000081634413847574737820000001150516011335424898_);}
	.st27{clip-path:url(#SVGID_00000023983274606253299450000001160185660344946574_);}
</style>
<g>
	<defs>
		<path id="SVGID_1_" d="M250,0h524c66.3,0,129.89,26.34,176.78,73.22C997.66,120.11,1024,183.7,1024,250v524
			c0,66.3-26.34,129.89-73.22,176.78C903.89,997.66,840.3,1024,774,1024H250c-66.3,0-129.89-26.34-176.78-73.22
			C26.34,903.89,0,840.3,0,774V250c0-66.3,26.34-129.89,73.22-176.78C120.11,26.34,183.7,0,250,0z"/>
	</defs>
	<clipPath id="SVGID_00000006692016759134569590000011226126143851240101_">
		<use xlink:href="#SVGID_1_"  style="overflow:visible;"/>
	</clipPath>
	<g style="clip-path:url(#SVGID_00000006692016759134569590000011226126143851240101_);">
		<g transform="matrix(1, 0, 0, 1, 0, -0.000000000000057351)">
			<g>
				<defs>
					<rect id="SVGID_00000003792171508064655210000011740164907194402985_" width="1024" height="1024"/>
				</defs>
				<clipPath id="SVGID_00000109709732931216902350000004221788869118492586_">
					<use xlink:href="#SVGID_00000003792171508064655210000011740164907194402985_"  style="overflow:visible;"/>
				</clipPath>
				<g style="clip-path:url(#SVGID_00000109709732931216902350000004221788869118492586_);">
					<g>
						<defs>
							<rect id="SVGID_00000116215349742616575820000006751713486987415716_" width="1024" height="1024"/>
						</defs>
						<clipPath id="SVGID_00000167362278079290966400000002040005074862944930_">
							<use xlink:href="#SVGID_00000116215349742616575820000006751713486987415716_"  style="overflow:visible;"/>
						</clipPath>
						<g style="clip-path:url(#SVGID_00000167362278079290966400000002040005074862944930_);">
							<g>
								<defs>
									<path id="SVGID_00000139255471274185507690000005794290335321615026_" d="M250,0h524c66.3,0,129.89,26.34,176.78,73.22
										C997.66,120.11,1024,183.7,1024,250v524c0,66.3-26.34,129.89-73.22,176.78C903.89,997.66,840.3,1024,774,1024H250
										c-66.3,0-129.89-26.34-176.78-73.22C26.34,903.89,0,840.3,0,774V250c0-66.3,26.34-129.89,73.22-176.78
										C120.11,26.34,183.7,0,250,0z"/>
								</defs>
								<clipPath id="SVGID_00000102532804716144734520000017667415015570541724_">
									<use xlink:href="#SVGID_00000139255471274185507690000005794290335321615026_"  style="overflow:visible;"/>
								</clipPath>
								<g style="clip-path:url(#SVGID_00000102532804716144734520000017667415015570541724_);">
									<rect x="-225.28" y="-225.28" class="st4" width="1474.56" height="1474.56"/>
								</g>
							</g>
						</g>
					</g>
				</g>
			</g>
		</g>
	</g>
</g>
<path class="st5" d="M168.81,405.73c3.76-150.67,80.98-227.22,231.68-229.66"/>
<path class="st6" d="M613.26,180.13c150.68,3.1,227.57,79.99,230.67,230.67"/>
<path class="st5" d="M855.19,618.27c-3.76,150.67-80.99,227.22-231.68,229.66"/>
<path class="st6" d="M410.73,843.88c-150.68-3.1-227.57-79.99-230.67-230.67"/>
<g>
	<defs>
		<rect id="SVGID_00000074400344851273114900000014041402506967740852_" x="294.81" y="298.7" width="199.56" height="199.56"/>
	</defs>
	<clipPath id="SVGID_00000178923588627264175940000006293413479191104444_">
		<use xlink:href="#SVGID_00000074400344851273114900000014041402506967740852_"  style="overflow:visible;"/>
	</clipPath>
	<g style="clip-path:url(#SVGID_00000178923588627264175940000006293413479191104444_);">
		<g>
			<defs>
				<path id="SVGID_00000136413231816586915310000002666302819320371380_" d="M394.59,298.7c-55.11,0-99.78,44.67-99.78,99.78
					c0,55.1,44.67,99.78,99.78,99.78c55.1,0,99.78-44.67,99.78-99.78C494.38,343.38,449.7,298.7,394.59,298.7z"/>
			</defs>
			<clipPath id="SVGID_00000121268910928021208510000004042637529177544113_">
				<use xlink:href="#SVGID_00000136413231816586915310000002666302819320371380_"  style="overflow:visible;"/>
			</clipPath>
			<g style="clip-path:url(#SVGID_00000121268910928021208510000004042637529177544113_);">
				<g transform="matrix(1, 0, 0, 1, 221, 224)">
					<g>
						<defs>
							<rect id="SVGID_00000039819296240562120690000013634631084241159082_" x="73.67" y="74.67" width="200" height="200"/>
						</defs>
						<clipPath id="SVGID_00000000217944472446998710000002282021968063738275_">
							<use xlink:href="#SVGID_00000039819296240562120690000013634631084241159082_"  style="overflow:visible;"/>
						</clipPath>
						<g style="clip-path:url(#SVGID_00000000217944472446998710000002282021968063738275_);">
							<g>
								<defs>
									
										<rect id="SVGID_00000152222719108299687150000008317254345022597760_" x="73.81" y="74.7" width="199.56" height="199.56"/>
								</defs>
								<clipPath id="SVGID_00000114757252678909024510000000771578503046025646_">
									<use xlink:href="#SVGID_00000152222719108299687150000008317254345022597760_"  style="overflow:visible;"/>
								</clipPath>
								<g style="clip-path:url(#SVGID_00000114757252678909024510000000771578503046025646_);">
									<g>
										<defs>
											<path id="SVGID_00000137115851753466124200000016041619311583211928_" d="M173.59,74.7c-55.11,0-99.78,44.67-99.78,99.78
												c0,55.1,44.67,99.78,99.78,99.78c55.1,0,99.78-44.67,99.78-99.78C273.38,119.38,228.7,74.7,173.59,74.7z"/>
										</defs>
										<clipPath id="SVGID_00000001654029928418411580000000570328428301320892_">
											<use xlink:href="#SVGID_00000137115851753466124200000016041619311583211928_"  style="overflow:visible;"/>
										</clipPath>
										<g style="clip-path:url(#SVGID_00000001654029928418411580000000570328428301320892_);">
											<path class="st12" d="M73.81,74.7h199.56v199.56H73.81V74.7z"/>
										</g>
									</g>
								</g>
							</g>
						</g>
					</g>
				</g>
			</g>
		</g>
	</g>
</g>
<g>
	<defs>
		<rect id="SVGID_00000181063648583150539230000013472562984847544961_" x="529.62" y="298.7" width="199.56" height="199.56"/>
	</defs>
	<clipPath id="SVGID_00000128478117196754886350000006577276469706116504_">
		<use xlink:href="#SVGID_00000181063648583150539230000013472562984847544961_"  style="overflow:visible;"/>
	</clipPath>
	<g style="clip-path:url(#SVGID_00000128478117196754886350000006577276469706116504_);">
		<g>
			<defs>
				<path id="SVGID_00000029755917699516948820000016166369913695820695_" d="M629.41,298.7c-55.1,0-99.78,44.67-99.78,99.78
					c0,55.1,44.68,99.78,99.78,99.78c55.11,0,99.78-44.67,99.78-99.78C729.19,343.38,684.52,298.7,629.41,298.7z"/>
			</defs>
			<clipPath id="SVGID_00000029761463333210456140000003831592499208193450_">
				<use xlink:href="#SVGID_00000029755917699516948820000016166369913695820695_"  style="overflow:visible;"/>
			</clipPath>
			<g style="clip-path:url(#SVGID_00000029761463333210456140000003831592499208193450_);">
				<g transform="matrix(1, 0, 0, 1, 397, 224)">
					<g>
						<defs>
							<rect id="SVGID_00000135666224162856817220000003539295328501017509_" x="132.33" y="74.67" width="200" height="200"/>
						</defs>
						<clipPath id="SVGID_00000150783348365122695350000014549156156400109440_">
							<use xlink:href="#SVGID_00000135666224162856817220000003539295328501017509_"  style="overflow:visible;"/>
						</clipPath>
						<g style="clip-path:url(#SVGID_00000150783348365122695350000014549156156400109440_);">
							<g>
								<defs>
									
										<rect id="SVGID_00000149359317420475536380000001924286907040869271_" x="132.63" y="74.7" width="199.56" height="199.56"/>
								</defs>
								<clipPath id="SVGID_00000176027285845625681980000014421522276310878082_">
									<use xlink:href="#SVGID_00000149359317420475536380000001924286907040869271_"  style="overflow:visible;"/>
								</clipPath>
								<g style="clip-path:url(#SVGID_00000176027285845625681980000014421522276310878082_);">
									<g>
										<defs>
											<path id="SVGID_00000107572980883923123000000008368676767962066065_" d="M232.41,74.7c-55.1,0-99.78,44.67-99.78,99.78
												c0,55.1,44.68,99.78,99.78,99.78c55.11,0,99.78-44.67,99.78-99.78C332.19,119.38,287.52,74.7,232.41,74.7z"/>
										</defs>
										<clipPath id="SVGID_00000053540395168928103440000000083870804536144798_">
											<use xlink:href="#SVGID_00000107572980883923123000000008368676767962066065_"  style="overflow:visible;"/>
										</clipPath>
										<g style="clip-path:url(#SVGID_00000053540395168928103440000000083870804536144798_);">
											<path class="st12" d="M132.63,74.7h199.56v199.56H132.63V74.7z"/>
										</g>
									</g>
								</g>
							</g>
						</g>
					</g>
				</g>
			</g>
		</g>
	</g>
</g>
<g>
	<defs>
		<rect id="SVGID_00000018228428185365479410000008494364505086332068_" x="294.81" y="525.74" width="199.56" height="199.56"/>
	</defs>
	<clipPath id="SVGID_00000033370542382829570160000006664670733944489402_">
		<use xlink:href="#SVGID_00000018228428185365479410000008494364505086332068_"  style="overflow:visible;"/>
	</clipPath>
	<g style="clip-path:url(#SVGID_00000033370542382829570160000006664670733944489402_);">
		<g>
			<defs>
				<path id="SVGID_00000130608692024433155610000014308220002019752628_" d="M394.59,525.74c-55.11,0-99.78,44.67-99.78,99.78
					c0,55.11,44.67,99.78,99.78,99.78c55.1,0,99.78-44.67,99.78-99.78C494.38,570.41,449.7,525.74,394.59,525.74z"/>
			</defs>
			<clipPath id="SVGID_00000093896544578888075850000005639732488528661648_">
				<use xlink:href="#SVGID_00000130608692024433155610000014308220002019752628_"  style="overflow:visible;"/>
			</clipPath>
			<g style="clip-path:url(#SVGID_00000093896544578888075850000005639732488528661648_);">
				<g transform="matrix(1, 0, 0, 1, 221, 394)">
					<g>
						<defs>
							<rect id="SVGID_00000025402283426977066100000017380466159403495848_" x="73.67" y="131.33" width="200" height="200"/>
						</defs>
						<clipPath id="SVGID_00000103261774016428257180000011235105497041693847_">
							<use xlink:href="#SVGID_00000025402283426977066100000017380466159403495848_"  style="overflow:visible;"/>
						</clipPath>
						<g style="clip-path:url(#SVGID_00000103261774016428257180000011235105497041693847_);">
							<g>
								<defs>
									
										<rect id="SVGID_00000161602239070184164440000012051858628970552508_" x="73.81" y="131.74" width="199.56" height="199.56"/>
								</defs>
								<clipPath id="SVGID_00000103239233947183680960000013967884007656841151_">
									<use xlink:href="#SVGID_00000161602239070184164440000012051858628970552508_"  style="overflow:visible;"/>
								</clipPath>
								<g style="clip-path:url(#SVGID_00000103239233947183680960000013967884007656841151_);">
									<g>
										<defs>
											<path id="SVGID_00000057146338077928561610000010425093694017791107_" d="M173.59,131.74
												c-55.11,0-99.78,44.67-99.78,99.78c0,55.11,44.67,99.78,99.78,99.78c55.1,0,99.78-44.67,99.78-99.78
												C273.38,176.41,228.7,131.74,173.59,131.74z"/>
										</defs>
										<clipPath id="SVGID_00000154406965954031241610000003225199643310641547_">
											<use xlink:href="#SVGID_00000057146338077928561610000010425093694017791107_"  style="overflow:visible;"/>
										</clipPath>
										<g style="clip-path:url(#SVGID_00000154406965954031241610000003225199643310641547_);">
											<path class="st12" d="M73.81,131.74h199.56V331.3H73.81V131.74z"/>
										</g>
									</g>
								</g>
							</g>
						</g>
					</g>
				</g>
			</g>
		</g>
	</g>
</g>
<g>
	<defs>
		<rect id="SVGID_00000178922665080478552720000003253121277091551648_" x="529.62" y="525.74" width="199.56" height="199.56"/>
	</defs>
	<clipPath id="SVGID_00000155128327264942558000000007428313454579502736_">
		<use xlink:href="#SVGID_00000178922665080478552720000003253121277091551648_"  style="overflow:visible;"/>
	</clipPath>
	<g style="clip-path:url(#SVGID_00000155128327264942558000000007428313454579502736_);">
		<g>
			<defs>
				<path id="SVGID_00000008858603247880992190000014782136996316364973_" d="M629.41,525.74c-55.1,0-99.78,44.67-99.78,99.78
					c0,55.11,44.68,99.78,99.78,99.78c55.11,0,99.78-44.67,99.78-99.78C729.19,570.41,684.52,525.74,629.41,525.74z"/>
			</defs>
			<clipPath id="SVGID_00000146493510408382803440000009864399152308230293_">
				<use xlink:href="#SVGID_00000008858603247880992190000014782136996316364973_"  style="overflow:visible;"/>
			</clipPath>
			<g style="clip-path:url(#SVGID_00000146493510408382803440000009864399152308230293_);">
				<g transform="matrix(1, 0, 0, 1, 397, 394)">
					<g>
						<defs>
							<rect id="SVGID_00000097500313550995433580000016063201332860215485_" x="132.33" y="131.33" width="200" height="200"/>
						</defs>
						<clipPath id="SVGID_00000123404685493800359100000008700932776721750702_">
							<use xlink:href="#SVGID_00000097500313550995433580000016063201332860215485_"  style="overflow:visible;"/>
						</clipPath>
						<g style="clip-path:url(#SVGID_00000123404685493800359100000008700932776721750702_);">
							<g>
								<defs>
									
										<rect id="SVGID_00000084524192235813101530000008956541624390468759_" x="132.63" y="131.74" width="199.56" height="199.56"/>
								</defs>
								<clipPath id="SVGID_00000108992001289220672520000015901288498500157346_">
									<use xlink:href="#SVGID_00000084524192235813101530000008956541624390468759_"  style="overflow:visible;"/>
								</clipPath>
								<g style="clip-path:url(#SVGID_00000108992001289220672520000015901288498500157346_);">
									<g>
										<defs>
											<path id="SVGID_00000098219793839457823660000005746462359788105395_" d="M232.41,131.74
												c-55.1,0-99.78,44.67-99.78,99.78c0,55.11,44.68,99.78,99.78,99.78c55.11,0,99.78-44.67,99.78-99.78
												C332.19,176.41,287.52,131.74,232.41,131.74z"/>
										</defs>
										<clipPath id="SVGID_00000078004680061907397880000000114232183191973765_">
											<use xlink:href="#SVGID_00000098219793839457823660000005746462359788105395_"  style="overflow:visible;"/>
										</clipPath>
										<g style="clip-path:url(#SVGID_00000078004680061907397880000000114232183191973765_);">
											<path class="st12" d="M132.63,131.74h199.56V331.3H132.63V131.74z"/>
										</g>
									</g>
								</g>
							</g>
						</g>
					</g>
				</g>
			</g>
		</g>
	</g>
</g>
</svg>
